<?xml version="1.0" standalone="no"?>
<!DOCTYPE svg PUBLIC "-//W3C//DTD SVG 20010904//EN"
 "http://www.w3.org/TR/2001/REC-SVG-20010904/DTD/svg10.dtd">
<svg version="1.0" xmlns="http://www.w3.org/2000/svg"
 width="260.000000pt" height="260.000000pt" viewBox="0 0 260.000000 260.000000"
 preserveAspectRatio="xMidYMid meet">
<metadata>
Created by potrace 1.11, written by Peter Selinger 2001-2013
</metadata>
<g transform="translate(0.000000,260.000000) scale(0.100000,-0.100000)"
fill="#000000" stroke="none">
<path d="M0 1300 l0 -1300 1300 0 1300 0 0 1300 0 1300 -1300 0 -1300 0 0
-1300z m2550 5 l0 -1245 -1255 0 -1255 0 0 1245 0 1245 1255 0 1255 0 0 -1245z"/>
<path d="M70 1305 l0 -1205 1225 0 1225 0 0 1205 0 1205 -1225 0 -1225 0 0
-1205z m2370 0 l0 -1125 -1145 0 -1145 0 0 1125 0 1125 1145 0 1145 0 0 -1125z"/>
<path d="M320 1790 c0 -5 14 -10 30 -10 17 0 46 -6 65 -14 55 -23 56 -40 53
-522 -3 -411 -4 -433 -22 -453 -31 -34 -58 -23 -84 34 -31 66 -59 95 -93 95
-44 0 -74 -31 -74 -78 0 -68 68 -122 152 -122 74 0 115 19 175 80 90 92 91 97
98 540 3 206 9 383 14 393 12 25 59 47 101 47 19 0 35 5 35 10 0 6 -82 10
-225 10 -143 0 -225 -4 -225 -10z"/>
<path d="M940 1790 c0 -5 14 -10 30 -10 17 0 46 -6 65 -14 55 -23 56 -40 53
-522 -3 -411 -4 -433 -22 -453 -31 -34 -58 -23 -84 34 -31 66 -59 95 -93 95
-44 0 -74 -31 -74 -78 0 -68 68 -122 152 -122 74 0 115 19 175 80 90 92 91 97
98 540 3 206 9 383 14 393 12 25 59 47 101 47 19 0 35 5 35 10 0 6 -82 10
-225 10 -143 0 -225 -4 -225 -10z"/>
<path d="M1460 1758 c0 -24 -3 -80 -7 -125 -5 -70 -4 -83 9 -83 10 0 18 13 22
38 8 52 44 103 86 124 27 14 60 18 138 18 l102 0 0 -444 c0 -259 -4 -455 -10
-470 -11 -31 -58 -56 -105 -56 -19 0 -35 -4 -35 -10 0 -6 82 -10 225 -10 143
0 225 4 225 10 0 6 -16 10 -35 10 -55 0 -92 24 -104 68 -7 23 -11 201 -11 470
l0 432 103 0 c153 -1 213 -37 232 -142 5 -25 13 -38 23 -38 13 0 14 12 8 77
-3 42 -6 98 -6 125 l0 48 -430 0 -430 0 0 -42z"/>
</g>
</svg>
